<svg xmlns="http://www.w3.org/2000/svg" width="128" height="128" fill="none" viewBox="0 0 128 128">
  <rect width="128" height="128" fill="#fff" rx="28" />
  <path fill="#121317"
    d="M29 42.875V21h43.077v26.875H34a5 5 0 0 1-5-5M29 102V80.125h26.923V107H34a5 5 0 0 1-5-5M72.077 47.875V21C86.919 21 99 33.032 99 47.875zM48.385 80.125v-21.5h26.923v21.5z" />
  <path fill="#121317"
    d="M72.077 66.688V47.875H99v18.813zM94 80.125H48.923l19.888 19.656A25 25 0 0 0 86.384 107H99V85.125a5 5 0 0 0-5-5" />
</svg>