<svg xmlns="http://www.w3.org/2000/svg" width="270" height="96" fill="none" viewBox="0 0 270 96">
  <path fill="#0e0f0c"
    d="M0 21.875V0h43.077v26.875H5a5 5 0 0 1-5-5M0 81V59.125h26.923V86H5a5 5 0 0 1-5-5M43.077 26.875V0C57.919 0 70 12.032 70 26.875zM19.385 59.125v-21.5h26.923v21.5z" />
  <path fill="#0e0f0c"
    d="M43.077 45.688V26.875H70v18.813zM65 59.125H19.923l19.888 19.656A25 25 0 0 0 57.384 86H70V64.125a5 5 0 0 0-5-5" />
  <path fill="#000" stroke="#121317"
    d="m190.759 28.672.125.314 13.836 34.5 11.076-34.467.112-.347h12.868l-.261.68-18.124 47.193h.001c-2.274 5.987-5.236 10.553-8.886 13.626-3.658 3.08-7.981 4.637-12.925 4.637-3.566 0-6.869-.75-9.711-2.266l-.265-.142V81.919l.718.347c2.793 1.352 5.662 2.066 8.521 2.066 2.624 0 4.847-.665 6.733-1.96 1.84-1.262 3.386-3.143 4.673-5.652l-21.154-47.344-.314-.704zm-35.768-1.104c6.303 0 11.734 2.474 15.582 6.959 3.843 4.48 6.078 10.929 6.078 18.84 0 .913 0 1.955-.096 2.816l-.049.445h-33.47c.788 6.033 6.22 10.5 14.071 10.5 5.753 0 11.44-2.34 16.058-6.142l.818-.674v11.15l-.194.15c-5.332 4.116-11.328 5.992-17.142 5.992-14.737 0-24.513-10.913-24.513-24.604 0-13.64 9.453-25.432 22.857-25.432Zm-25.083 0v11.587l-.589-.108a18 18 0 0 0-3.223-.267c-7.907 0-13.576 6.937-13.576 16.98V76.5h-11.672V28.672h11.028v8.564c1.482-2.788 3.443-5.023 5.858-6.64 2.981-1.995 6.623-3.028 10.847-3.028zm138.561 1.104v9.884l-.119.14-23.586 27.696h24.533V76.5h-38.719v-9.7l.119-.14 23.769-27.88h-22.14V28.672zm-113.938 8.636c-5.701 0-10.202 4.118-11.281 10.132h22.294c-.986-6.02-5.319-10.132-11.013-10.132Z" />
</svg>